#define wireless3_full_width 16
#define wireless3_full_height 16
static unsigned char wireless3_full_bits[] = {
   0x00, 0x00, 0xf0, 0x0f, 0x08, 0x10, 0xe4, 0x27, 0x10, 0x08, 0x00, 0x00,
   0xc0, 0x03, 0xc0, 0x03, 0xf0, 0x0f, 0xf0, 0x0f, 0xf0, 0x0f, 0xf0, 0x0f,
   0xf0, 0x0f, 0x00, 0x00, 0x00, 0x00, 0x00, 0x00 };
